<svg display="none" xmlns="http://www.w3.org/2000/svg">
    
    <symbol width="65" height="65" viewBox="0 0 50 50" id="twitch-icon">
    <path d="M 5.3125 1 L 2 9.8125 L 2 43 L 13 43 L 13 49 L 20.40625 49 L 26.40625 43 L 35.40625 43 L 48 30.4375 L 48 1 Z M 11 6 L 43 6 L 43 28 L 37 34 L 25 34 L 19 40 L 19 34 L 11 34 Z M 20 13 L 20 27 L 26 27 L 26 13 Z M 30 13 L 30 27 L 36 27 L 36 13 Z"/>
    </symbol>

    <symbol width="65" height="65" viewBox="2 2 12 12" id="kick-icon">
    <path d="M2 2h12v12H2V2Zm5.042466666666666 1.6907533333333333H4.16968V12.309h2.8727866666666664v-1.9151999999999998h0.9575999999999999v0.9575999999999999h0.9575333333333332v0.9575999999999999h2.872733333333333v-2.8728h-0.9575999999999999v-0.9575999999999999h-0.9575333333333332v-0.9575333333333332h0.9575333333333332V6.563466666666667h0.9575999999999999V3.6907533333333333h-2.872733333333333v0.9575733333333334h-0.9575333333333332v0.9575666666666667h-0.9575999999999999V3.6907533333333333Z"/>
    </symbol>

    <symbol width="65" height="65" viewBox="0 0 50 50" id="telegram-icon">
    <path d="M46.137,6.552c-0.75-0.636-1.928-0.727-3.146-0.238l-0.002,0C41.708,6.828,6.728,21.832,5.304,22.445	c-0.259,0.09-2.521,0.934-2.288,2.814c0.208,1.695,2.026,2.397,2.248,2.478l8.893,3.045c0.59,1.964,2.765,9.21,3.246,10.758	c0.3,0.965,0.789,2.233,1.646,2.494c0.752,0.29,1.5,0.025,1.984-0.355l5.437-5.043l8.777,6.845l0.209,0.125	c0.596,0.264,1.167,0.396,1.712,0.396c0.421,0,0.825-0.079,1.211-0.237c1.315-0.54,1.841-1.793,1.896-1.935l6.556-34.077	C47.231,7.933,46.675,7.007,46.137,6.552z M22,32l-3,8l-3-10l23-17L22,32z"/>
    </symbol>

    <symbol width="65" height="65" viewBox="2 2 45 45" id="vk-icon">
    <path d="M41,4H9C6.24,4,4,6.24,4,9v32c0,2.76,2.24,5,5,5h32c2.76,0,5-2.24,5-5V9C46,6.24,43.76,4,41,4z M37.72,33l-3.73-0.01 c0,0-0.08,0.01-0.21,0.01c-0.3,0-0.92-0.08-1.65-0.58c-1.31-0.91-2.56-3.17-3.55-3.17c-0.07,0-0.13,0.01-0.19,0.03 c-0.86,0.27-1.12,1.13-1.12,2.18c0,0.37-0.26,0.54-0.96,0.54h-1.93c-2.16,0-4.25-0.05-6.6-2.62c-3.46-3.79-6.7-10.53-6.7-10.53 s-0.18-0.39,0.01-0.62c0.18-0.21,0.6-0.23,0.76-0.23c0.04,0,0.06,0,0.06,0h4c0,0,0.37,0.07,0.64,0.27c0.23,0.17,0.35,0.48,0.35,0.48 s0.68,1.32,1.53,2.81c1.43,2.46,2.2,3.28,2.75,3.28c0.09,0,0.18-0.02,0.27-0.07c0.82-0.45,0.58-4.09,0.58-4.09s0.01-1.32-0.42-1.9 c-0.33-0.46-0.96-0.59-1.24-0.63c-0.22-0.03,0.14-0.55,0.62-0.79c0.62-0.3,1.65-0.36,2.89-0.36h0.6c1.17,0.02,1.2,0.14,1.66,0.25 c1.38,0.33,0.91,1.62,0.91,4.71c0,0.99-0.18,2.38,0.53,2.85c0.05,0.03,0.12,0.05,0.21,0.05c0.46,0,1.45-0.59,3.03-3.26 c0.88-1.52,1.56-3.03,1.56-3.03s0.15-0.27,0.38-0.41c0.22-0.13,0.22-0.13,0.51-0.13h0.03c0.32,0,3.5-0.03,4.2-0.03h0.08 c0.67,0,1.28,0.01,1.39,0.42c0.16,0.62-0.49,1.73-2.2,4.03c-2.82,3.77-3.14,3.49-0.8,5.67c2.24,2.08,2.7,3.09,2.78,3.22 C39.68,32.88,37.72,33,37.72,33z"/>
    </symbol>

    <symbol width="65" height="65" viewBox="0 0 48 48" id="discord-icon">
    <path d="M 41.625 10.769531 C 37.644531 7.566406 31.347656 7.023438 31.078125 7.003906 C 30.660156 6.96875 30.261719 7.203125 30.089844 7.589844 C 30.074219 7.613281 29.9375 7.929688 29.785156 8.421875 C 32.417969 8.867188 35.652344 9.761719 38.578125 11.578125 C 39.046875 11.867188 39.191406 12.484375 38.902344 12.953125 C 38.710938 13.261719 38.386719 13.429688 38.050781 13.429688 C 37.871094 13.429688 37.6875 13.378906 37.523438 13.277344 C 32.492188 10.15625 26.210938 10 25 10 C 23.789063 10 17.503906 10.15625 12.476563 13.277344 C 12.007813 13.570313 11.390625 13.425781 11.101563 12.957031 C 10.808594 12.484375 10.953125 11.871094 11.421875 11.578125 C 14.347656 9.765625 17.582031 8.867188 20.214844 8.425781 C 20.0625 7.929688 19.925781 7.617188 19.914063 7.589844 C 19.738281 7.203125 19.34375 6.960938 18.921875 7.003906 C 18.652344 7.023438 12.355469 7.566406 8.320313 10.8125 C 6.214844 12.761719 2 24.152344 2 34 C 2 34.175781 2.046875 34.34375 2.132813 34.496094 C 5.039063 39.605469 12.972656 40.941406 14.78125 41 C 14.789063 41 14.800781 41 14.8125 41 C 15.132813 41 15.433594 40.847656 15.621094 40.589844 L 17.449219 38.074219 C 12.515625 36.800781 9.996094 34.636719 9.851563 34.507813 C 9.4375 34.144531 9.398438 33.511719 9.765625 33.097656 C 10.128906 32.683594 10.761719 32.644531 11.175781 33.007813 C 11.234375 33.0625 15.875 37 25 37 C 34.140625 37 38.78125 33.046875 38.828125 33.007813 C 39.242188 32.648438 39.871094 32.683594 40.238281 33.101563 C 40.601563 33.515625 40.5625 34.144531 40.148438 34.507813 C 40.003906 34.636719 37.484375 36.800781 32.550781 38.074219 L 34.378906 40.589844 C 34.566406 40.847656 34.867188 41 35.1875 41 C 35.199219 41 35.210938 41 35.21875 41 C 37.027344 40.941406 44.960938 39.605469 47.867188 34.496094 C 47.953125 34.34375 48 34.175781 48 34 C 48 24.152344 43.785156 12.761719 41.625 10.769531 Z M 18.5 30 C 16.566406 30 15 28.210938 15 26 C 15 23.789063 16.566406 22 18.5 22 C 20.433594 22 22 23.789063 22 26 C 22 28.210938 20.433594 30 18.5 30 Z M 31.5 30 C 29.566406 30 28 28.210938 28 26 C 28 23.789063 29.566406 22 31.5 22 C 33.433594 22 35 23.789063 35 26 C 35 28.210938 33.433594 30 31.5 30 Z"/>
    </symbol>

    <symbol width="65" height="65" viewBox="0 0 50 50" id="behance-icon">
    <path d="M 9 4 C 6.24 4 4 6.24 4 9 L 4 41 C 4 43.76 6.24 46 9 46 L 41 46 C 43.76 46 46 43.76 46 41 L 46 9 C 46 6.24 43.76 4 41 4 L 9 4 z M 12 18 L 18.730469 18 C 19.460469 18 23.410156 17.950312 23.410156 21.570312 C 23.410156 23.490313 22.099766 24.139688 21.509766 24.429688 C 22.389766 24.709688 24 25.52 24 28 C 24 31.83 19.609531 32 19.019531 32 L 12 32 L 12 18 z M 29 18 L 36 18 L 36 20 L 29 20 L 29 18 z M 15 20.429688 L 15 23.710938 L 18.220703 23.710938 C 18.660703 23.710938 20.119141 23.47 20.119141 22 C 20.119141 20.53 18.219687 20.429688 17.929688 20.429688 L 15 20.429688 z M 32.730469 21 C 36.630469 21 37.689609 24.039766 37.849609 24.759766 C 37.999609 25.489766 38 26.13 38 27 L 30.099609 27 C 30.099609 27.87 30.560625 29.830078 32.890625 29.830078 C 33.510625 29.830078 33.969453 29.680625 34.439453 29.390625 C 34.899453 29.100625 35.060938 28.819297 35.210938 28.529297 L 37.839844 28.529297 C 37.379844 29.679297 36.760078 30.550859 35.830078 31.130859 C 34.900078 31.710859 33.820078 32 32.580078 32 C 31.800078 32 31.03 31.850547 30.25 31.560547 C 29.63 31.270547 29.010781 30.840156 28.550781 30.410156 C 28.090781 29.970156 27.780703 29.389922 27.470703 28.669922 C 27.160703 28.089922 27 27.22 27 26.5 C 27 25.78 27.290469 21 32.730469 21 z M 32.730469 23.029297 C 30.470469 23.029297 30.099609 25.199844 30.099609 25.339844 L 35.060547 25.339844 C 34.900547 24.619844 34.250469 23.029297 32.730469 23.029297 z M 15 25.710938 L 15 29.570312 L 18.351562 29.570312 C 18.640563 29.570312 20.679688 29.480937 20.679688 27.710938 C 20.679687 25.950937 19.077562 25.710938 18.351562 25.710938 L 15 25.710938 z"/>
    </symbol>

    <symbol width="65" height="65" viewBox="0 0 50 50" id="vkdesign-icon">
    <path d="M41,4H9C6.24,4,4,6.24,4,9v32c0,2.76,2.24,5,5,5h32c2.76,0,5-2.24,5-5V9C46,6.24,43.76,4,41,4z M37.72,33l-3.73-0.01 c0,0-0.08,0.01-0.21,0.01c-0.3,0-0.92-0.08-1.65-0.58c-1.31-0.91-2.56-3.17-3.55-3.17c-0.07,0-0.13,0.01-0.19,0.03 c-0.86,0.27-1.12,1.13-1.12,2.18c0,0.37-0.26,0.54-0.96,0.54h-1.93c-2.16,0-4.25-0.05-6.6-2.62c-3.46-3.79-6.7-10.53-6.7-10.53 s-0.18-0.39,0.01-0.62c0.18-0.21,0.6-0.23,0.76-0.23c0.04,0,0.06,0,0.06,0h4c0,0,0.37,0.07,0.64,0.27c0.23,0.17,0.35,0.48,0.35,0.48 s0.68,1.32,1.53,2.81c1.43,2.46,2.2,3.28,2.75,3.28c0.09,0,0.18-0.02,0.27-0.07c0.82-0.45,0.58-4.09,0.58-4.09s0.01-1.32-0.42-1.9 c-0.33-0.46-0.96-0.59-1.24-0.63c-0.22-0.03,0.14-0.55,0.62-0.79c0.62-0.3,1.65-0.36,2.89-0.36h0.6c1.17,0.02,1.2,0.14,1.66,0.25 c1.38,0.33,0.91,1.62,0.91,4.71c0,0.99-0.18,2.38,0.53,2.85c0.05,0.03,0.12,0.05,0.21,0.05c0.46,0,1.45-0.59,3.03-3.26 c0.88-1.52,1.56-3.03,1.56-3.03s0.15-0.27,0.38-0.41c0.22-0.13,0.22-0.13,0.51-0.13h0.03c0.32,0,3.5-0.03,4.2-0.03h0.08 c0.67,0,1.28,0.01,1.39,0.42c0.16,0.62-0.49,1.73-2.2,4.03c-2.82,3.77-3.14,3.49-0.8,5.67c2.24,2.08,2.7,3.09,2.78,3.22 C39.68,32.88,37.72,33,37.72,33z"/>
    </symbol>
</svg>
